<svg width="1920" height="1171" viewBox="0 0 1920 1171" fill="none" xmlns="http://www.w3.org/2000/svg">
<circle cx="128" cy="238" r="5" fill="black"/>
<circle cx="1644" cy="824" r="5" fill="black"/>
<path d="M115.834 134.523C116.523 134.977 117.336 135.205 118.161 135.174L118.161 135.164C118.938 135.14 119.691 134.887 120.327 134.439C120.962 133.99 121.452 133.365 121.735 132.64L123.25 127.45C123.602 126.274 124.221 125.196 125.06 124.301C125.899 123.405 126.936 122.718 128.087 122.293L132.929 120.537C133.709 120.234 134.372 119.692 134.827 118.989C135.281 118.287 135.501 117.458 135.457 116.623C135.413 115.788 135.106 114.988 134.582 114.337C134.058 113.686 133.34 113.217 132.533 112.997L127.647 111.589C126.465 111.239 125.38 110.619 124.481 109.776C123.58 108.934 122.889 107.893 122.461 106.738L120.705 101.896C120.401 101.126 119.866 100.469 119.172 100.018C118.477 99.5667 117.661 99.3431 116.834 99.3776C116.007 99.4121 115.211 99.7035 114.557 100.211C113.903 100.719 113.424 101.417 113.185 102.21L111.745 107.199C111.396 108.348 110.79 109.401 109.975 110.282C109.159 111.162 108.154 111.845 107.036 112.281L102.196 114.017C101.621 114.24 101.105 114.595 100.69 115.051C100.275 115.508 99.9716 116.054 99.8045 116.648C99.6373 117.242 99.6108 117.866 99.7261 118.473C99.8415 119.079 100.097 119.65 100.471 120.14C100.981 120.809 101.69 121.301 102.495 121.545L107.378 122.949C108.563 123.302 109.649 123.926 110.551 124.772C110.793 124.997 111.02 125.237 111.231 125.491C111.804 126.182 112.254 126.967 112.564 127.809L114.319 132.644C114.615 133.413 115.145 134.07 115.834 134.523ZM137.413 147.715C136.876 147.359 136.463 146.844 136.233 146.242L135.237 143.499C135.044 142.978 134.733 142.508 134.328 142.126C133.923 141.746 133.434 141.466 132.9 141.309L130.141 140.511C129.5 140.319 128.935 139.929 128.53 139.396C128.133 138.879 127.911 138.25 127.891 137.601C127.87 136.946 128.054 136.301 128.416 135.755C128.777 135.207 129.301 134.787 129.914 134.555L132.654 133.565C133.163 133.364 133.619 133.051 133.988 132.647C134.357 132.243 134.628 131.76 134.781 131.235L135.582 128.473C135.771 127.848 136.149 127.297 136.665 126.898C137.181 126.498 137.808 126.267 138.46 126.24C139.112 126.211 139.757 126.386 140.304 126.741C140.852 127.095 141.278 127.611 141.52 128.216L142.52 130.978C142.715 131.496 143.027 131.961 143.432 132.337C143.837 132.714 144.323 132.992 144.854 133.149L147.616 133.948C148.252 134.123 148.817 134.495 149.231 135.01C149.644 135.524 149.885 136.157 149.919 136.816C149.952 137.476 149.778 138.128 149.42 138.683C149.062 139.238 148.539 139.665 147.924 139.906L145.162 140.906C144.644 141.102 144.179 141.414 143.801 141.817C143.422 142.224 143.142 142.713 142.986 143.245L142.19 145.999C141.999 146.64 141.606 147.204 141.072 147.607C140.557 148.005 139.928 148.231 139.278 148.252C138.613 148.273 137.962 148.086 137.413 147.715Z" fill="#212121"/>
<path d="M1745.55 970.985C1746.24 971.439 1747.05 971.666 1747.88 971.636L1747.88 971.625C1748.65 971.601 1749.41 971.349 1750.04 970.9C1750.68 970.451 1751.17 969.826 1751.45 969.101L1752.97 963.911C1753.32 962.736 1753.94 961.657 1754.77 960.763C1755.61 959.867 1756.65 959.18 1757.8 958.755L1762.64 956.999C1763.42 956.695 1764.09 956.153 1764.54 955.451C1765 954.748 1765.22 953.92 1765.17 953.085C1765.13 952.25 1764.82 951.45 1764.3 950.799C1763.77 950.148 1763.05 949.678 1762.25 949.458L1757.36 948.051C1756.18 947.701 1755.09 947.08 1754.2 946.238C1753.29 945.396 1752.6 944.355 1752.18 943.199L1750.42 938.357C1750.12 937.587 1749.58 936.931 1748.89 936.48C1748.19 936.028 1747.38 935.805 1746.55 935.839C1745.72 935.874 1744.93 936.165 1744.27 936.673C1743.62 937.18 1743.14 937.879 1742.9 938.672L1741.46 943.66C1741.11 944.809 1740.51 945.863 1739.69 946.743C1738.87 947.623 1737.87 948.307 1736.75 948.742L1731.91 950.479C1731.34 950.702 1730.82 951.056 1730.4 951.512C1729.99 951.969 1729.69 952.515 1729.52 953.109C1729.35 953.703 1729.33 954.327 1729.44 954.934C1729.56 955.54 1729.81 956.111 1730.19 956.602C1730.7 957.271 1731.4 957.763 1732.21 958.006L1737.09 959.411C1738.28 959.763 1739.36 960.388 1740.27 961.234C1740.51 961.458 1740.73 961.699 1740.95 961.953C1741.52 962.644 1741.97 963.428 1742.28 964.271L1744.03 969.106C1744.33 969.874 1744.86 970.531 1745.55 970.985ZM1767.13 984.177C1766.59 983.821 1766.18 983.306 1765.95 982.704L1764.95 979.961C1764.76 979.439 1764.45 978.97 1764.04 978.588C1763.64 978.208 1763.15 977.928 1762.61 977.77L1759.86 976.972C1759.21 976.78 1758.65 976.39 1758.24 975.857C1757.85 975.34 1757.63 974.712 1757.61 974.062C1757.58 973.408 1757.77 972.763 1758.13 972.217C1758.49 971.668 1759.02 971.249 1759.63 971.017L1762.37 970.026C1762.88 969.826 1763.33 969.512 1763.7 969.108C1764.07 968.704 1764.34 968.221 1764.5 967.696L1765.3 964.934C1765.49 964.309 1765.86 963.759 1766.38 963.36C1766.9 962.959 1767.52 962.729 1768.17 962.701C1768.83 962.673 1769.47 962.848 1770.02 963.203C1770.57 963.556 1770.99 964.072 1771.23 964.678L1772.23 967.44C1772.43 967.958 1772.74 968.423 1773.15 968.799C1773.55 969.176 1774.04 969.453 1774.57 969.611L1777.33 970.409C1777.97 970.585 1778.53 970.956 1778.95 971.472C1779.36 971.986 1779.6 972.619 1779.63 973.278C1779.67 973.937 1779.49 974.59 1779.13 975.145C1778.78 975.699 1778.25 976.127 1777.64 976.368L1774.88 977.368C1774.36 977.563 1773.89 977.876 1773.52 978.279C1773.14 978.685 1772.86 979.174 1772.7 979.707L1771.9 982.46C1771.71 983.101 1771.32 983.665 1770.79 984.069C1770.27 984.467 1769.64 984.693 1768.99 984.714C1768.33 984.735 1767.68 984.547 1767.13 984.177Z" fill="#212121"/>
<path d="M0 1C3.96183 139.667 185.017 440.3 877.544 533.5C1570.07 626.7 1861.07 996.667 1920 1170" stroke="black" stroke-width="2" stroke-linecap="round" stroke-dasharray="4 4"/>
<path d="M1509.19 220.247C1497.48 271.972 1510.6 383.472 1656.72 415.669C1679.01 421.316 1731.73 421.552 1764.36 377.317C1805.15 322.024 1753.08 252.602 1660.83 307.849C1568.57 363.096 1588.83 616.352 2109.49 636.667" stroke="black"/>
<path d="M74 222.5V746.5" stroke="black"/>
<path d="M74 772L74 822" stroke="black"/>
<path d="M91 140L91 548" stroke="black"/>
<circle cx="74" cy="759" r="8.5" stroke="black"/>
</svg>
