<svg width="13" height="16" viewBox="0 0 13 16" fill="none" xmlns="http://www.w3.org/2000/svg">
<path d="M11.4544 13.5341L11.1853 13.1127L11.4544 13.5341ZM11.4544 2.06486L11.7235 1.64347L11.4544 2.06486ZM6.75232 7.79946C6.75232 5.04052 8.84153 2.85989 11.3519 2.85989V1.85989C8.22943 1.85989 5.75232 4.55001 5.75232 7.79946H6.75232ZM11.3519 12.739C8.84153 12.739 6.75232 10.5584 6.75232 7.79946H5.75232C5.75232 11.0489 8.22943 13.739 11.3519 13.739V12.739ZM11.1853 13.1127C10.2077 13.737 9.04661 14.0989 7.79946 14.0989V15.0989C9.24296 15.0989 10.59 14.6794 11.7235 13.9554L11.1853 13.1127ZM7.79946 14.0989C4.32036 14.0989 1.5 11.2786 1.5 7.79946H0.5C0.5 11.8308 3.76808 15.0989 7.79946 15.0989V14.0989ZM1.5 7.79946C1.5 4.32036 4.32036 1.5 7.79946 1.5V0.5C3.76808 0.5 0.5 3.76808 0.5 7.79946H1.5ZM7.79946 1.5C9.04661 1.5 10.2077 1.86191 11.1853 2.48625L11.7235 1.64347C10.59 0.919519 9.24296 0.5 7.79946 0.5V1.5ZM11.3519 13.739C11.1928 13.739 11.0814 13.631 11.0426 13.5223C11.0225 13.466 11.0143 13.3923 11.0374 13.3125C11.0622 13.2268 11.1173 13.1561 11.1853 13.1127L11.7235 13.9554C12.0205 13.7658 12.0712 13.4293 11.9845 13.1863C11.9007 12.9516 11.6708 12.739 11.3519 12.739V13.739ZM11.3519 2.85989C11.6708 2.85989 11.9007 2.64734 11.9845 2.41264C12.0712 2.16963 12.0205 1.83315 11.7235 1.64347L11.1853 2.48625C11.1173 2.44286 11.0622 2.3721 11.0374 2.28641C11.0143 2.20657 11.0225 2.13295 11.0426 2.0766C11.0814 1.96792 11.1927 1.85989 11.3519 1.85989V2.85989Z" fill="white"/>
</svg>
