<svg width="18" height="18" viewBox="0 0 18 18" fill="none" xmlns="http://www.w3.org/2000/svg">
<mask id="path-1-inside-1_125_122" fill="white">
<path fill-rule="evenodd" clip-rule="evenodd" d="M9.00066 0C9.2768 0 9.50066 0.223858 9.50066 0.5V2.20054C9.50066 2.47668 9.2768 2.70054 9.00066 2.70054C8.72452 2.70054 8.50066 2.47668 8.50066 2.20054V0.5C8.50066 0.223858 8.72452 0 9.00066 0ZM9.00066 15.3003C9.2768 15.3003 9.50066 15.5241 9.50066 15.8003V17.5008C9.50066 17.777 9.2768 18.0008 9.00066 18.0008C8.72452 18.0008 8.50066 17.777 8.50066 17.5008V15.8003C8.50066 15.5241 8.72452 15.3003 9.00066 15.3003ZM17.5008 9.50015C17.777 9.50015 18.0008 9.27629 18.0008 9.00015C18.0008 8.72401 17.777 8.50015 17.5008 8.50015H15.8003C15.5241 8.50015 15.3003 8.72401 15.3003 9.00015C15.3003 9.27629 15.5241 9.50015 15.8003 9.50015H17.5008ZM2.70054 9.00015C2.70054 9.27629 2.47668 9.50015 2.20054 9.50015H0.5C0.223858 9.50015 0 9.27629 0 9.00015C0 8.72401 0.223858 8.50015 0.5 8.50015H2.20054C2.47668 8.50015 2.70054 8.72401 2.70054 9.00015ZM15.6563 3.28095C15.8515 3.08569 15.8515 2.76911 15.6563 2.57385C15.461 2.37858 15.1444 2.37858 14.9492 2.57385L13.7467 3.77631C13.5514 3.97157 13.5514 4.28815 13.7467 4.48342C13.942 4.67868 14.2586 4.67868 14.4538 4.48342L15.6563 3.28095ZM4.14663 12.7917C4.34189 12.987 4.34189 13.3036 4.14663 13.4988L2.94416 14.7013C2.7489 14.8965 2.43232 14.8965 2.23706 14.7013C2.04179 14.506 2.04179 14.1894 2.23706 13.9942L3.43952 12.7917C3.63478 12.5965 3.95136 12.5965 4.14663 12.7917ZM14.9492 15.0014C15.1444 15.1967 15.461 15.1967 15.6563 15.0014C15.8515 14.8062 15.8515 14.4896 15.6563 14.2943L14.4538 13.0919C14.2586 12.8966 13.942 12.8966 13.7467 13.0919C13.5514 13.2871 13.5514 13.6037 13.7467 13.799L14.9492 15.0014ZM4.14663 4.78358C3.95136 4.97884 3.63478 4.97884 3.43952 4.78358L2.23706 3.58111C2.04179 3.38585 2.04179 3.06927 2.23706 2.87401C2.43232 2.67874 2.7489 2.67874 2.94416 2.87401L4.14663 4.07647C4.34189 4.27173 4.34189 4.58831 4.14663 4.78358ZM9.00066 14.1002C11.8174 14.1002 14.1007 11.8169 14.1007 9.00015C14.1007 6.18345 11.8174 3.90006 9.00066 3.90006C6.18396 3.90006 3.90057 6.18345 3.90057 9.00015C3.90057 11.8169 6.18396 14.1002 9.00066 14.1002Z"/>
</mask>
<path d="M15.6563 2.57385L16.3634 1.86674L16.3634 1.86674L15.6563 2.57385ZM15.6563 3.28095L16.3634 3.98806L15.6563 3.28095ZM14.9492 2.57385L14.2421 1.86674L14.2421 1.86674L14.9492 2.57385ZM13.7467 3.77631L13.0396 3.0692L13.0396 3.0692L13.7467 3.77631ZM13.7467 4.48342L13.0396 5.19052L13.0396 5.19052L13.7467 4.48342ZM14.4538 4.48342L13.7467 3.77631L14.4538 4.48342ZM4.14663 13.4988L4.85373 14.2059L4.85373 14.2059L4.14663 13.4988ZM4.14663 12.7917L4.85373 12.0846L4.85373 12.0846L4.14663 12.7917ZM2.94416 14.7013L3.65127 15.4084L3.65127 15.4084L2.94416 14.7013ZM2.23706 13.9942L2.94416 14.7013L2.94416 14.7013L2.23706 13.9942ZM3.43952 12.7917L2.73241 12.0846L3.43952 12.7917ZM15.6563 15.0014L16.3634 15.7086L16.3634 15.7086L15.6563 15.0014ZM14.9492 15.0014L14.2421 15.7086L14.2421 15.7086L14.9492 15.0014ZM15.6563 14.2943L16.3634 13.5872L16.3634 13.5872L15.6563 14.2943ZM14.4538 13.0919L13.7467 13.799L13.7467 13.799L14.4538 13.0919ZM13.7467 13.0919L14.4538 13.799L14.4538 13.799L13.7467 13.0919ZM13.7467 13.799L14.4538 13.0919L13.7467 13.799ZM3.43952 4.78358L4.14663 4.07647L4.14663 4.07647L3.43952 4.78358ZM4.14663 4.78358L3.43952 4.07647L3.43952 4.07647L4.14663 4.78358ZM2.23706 2.87401L2.94416 3.58111L2.94416 3.58111L2.23706 2.87401ZM2.94416 2.87401L3.65127 2.1669L2.94416 2.87401ZM4.14663 4.07647L3.43952 4.78358L3.43952 4.78358L4.14663 4.07647ZM10.5007 0.5C10.5007 -0.328427 9.82909 -1 9.00066 -1V1C8.72452 1 8.50066 0.776143 8.50066 0.5H10.5007ZM10.5007 2.20054V0.5H8.50066V2.20054H10.5007ZM9.00066 3.70054C9.82909 3.70054 10.5007 3.02897 10.5007 2.20054H8.50066C8.50066 1.9244 8.72452 1.70054 9.00066 1.70054V3.70054ZM7.50066 2.20054C7.50066 3.02897 8.17223 3.70054 9.00066 3.70054V1.70054C9.2768 1.70054 9.50066 1.9244 9.50066 2.20054H7.50066ZM7.50066 0.5V2.20054H9.50066V0.5H7.50066ZM9.00066 -1C8.17223 -1 7.50066 -0.328427 7.50066 0.5H9.50066C9.50066 0.776143 9.2768 1 9.00066 1V-1ZM10.5007 15.8003C10.5007 14.9718 9.82909 14.3003 9.00066 14.3003V16.3003C8.72452 16.3003 8.50066 16.0764 8.50066 15.8003H10.5007ZM10.5007 17.5008V15.8003H8.50066V17.5008H10.5007ZM9.00066 19.0008C9.82909 19.0008 10.5007 18.3292 10.5007 17.5008H8.50066C8.50066 17.2247 8.72452 17.0008 9.00066 17.0008V19.0008ZM7.50066 17.5008C7.50066 18.3292 8.17223 19.0008 9.00066 19.0008V17.0008C9.2768 17.0008 9.50066 17.2247 9.50066 17.5008H7.50066ZM7.50066 15.8003V17.5008H9.50066V15.8003H7.50066ZM9.00066 14.3003C8.17223 14.3003 7.50066 14.9718 7.50066 15.8003H9.50066C9.50066 16.0764 9.2768 16.3003 9.00066 16.3003V14.3003ZM17.0008 9.00015C17.0008 8.72401 17.2247 8.50015 17.5008 8.50015V10.5001C18.3292 10.5001 19.0008 9.82858 19.0008 9.00015H17.0008ZM17.5008 9.50015C17.2247 9.50015 17.0008 9.27629 17.0008 9.00015H19.0008C19.0008 8.17172 18.3292 7.50015 17.5008 7.50015V9.50015ZM15.8003 9.50015H17.5008V7.50015H15.8003V9.50015ZM16.3003 9.00015C16.3003 9.27629 16.0764 9.50015 15.8003 9.50015V7.50015C14.9718 7.50015 14.3003 8.17172 14.3003 9.00015H16.3003ZM15.8003 8.50015C16.0764 8.50015 16.3003 8.72401 16.3003 9.00015H14.3003C14.3003 9.82858 14.9718 10.5001 15.8003 10.5001V8.50015ZM17.5008 8.50015H15.8003V10.5001H17.5008V8.50015ZM2.20054 10.5001C3.02897 10.5001 3.70054 9.82858 3.70054 9.00015H1.70054C1.70054 8.72401 1.9244 8.50015 2.20054 8.50015V10.5001ZM0.5 10.5001H2.20054V8.50015H0.5V10.5001ZM-1 9.00015C-1 9.82858 -0.328428 10.5001 0.5 10.5001V8.50015C0.776143 8.50015 1 8.72401 1 9.00015H-1ZM0.5 7.50015C-0.328428 7.50015 -1 8.17172 -1 9.00015H1C1 9.27629 0.776143 9.50015 0.5 9.50015V7.50015ZM2.20054 7.50015H0.5V9.50015H2.20054V7.50015ZM3.70054 9.00015C3.70054 8.17172 3.02897 7.50015 2.20054 7.50015V9.50015C1.9244 9.50015 1.70054 9.27629 1.70054 9.00015H3.70054ZM14.9492 3.28095C14.7539 3.08569 14.7539 2.76911 14.9492 2.57384L16.3634 3.98806C16.9492 3.40227 16.9492 2.45252 16.3634 1.86674L14.9492 3.28095ZM15.6563 3.28095C15.461 3.47621 15.1444 3.47621 14.9492 3.28095L16.3634 1.86674C15.7776 1.28095 14.8279 1.28095 14.2421 1.86674L15.6563 3.28095ZM14.4538 4.48342L15.6563 3.28095L14.2421 1.86674L13.0396 3.0692L14.4538 4.48342ZM14.4538 3.77631C14.6491 3.97157 14.6491 4.28815 14.4538 4.48342L13.0396 3.0692C12.4538 3.65499 12.4538 4.60474 13.0396 5.19052L14.4538 3.77631ZM13.7467 3.77631C13.942 3.58105 14.2586 3.58105 14.4538 3.77631L13.0396 5.19052C13.6254 5.77631 14.5751 5.77631 15.1609 5.19052L13.7467 3.77631ZM14.9492 2.57384L13.7467 3.77631L15.1609 5.19052L16.3634 3.98806L14.9492 2.57384ZM4.85373 14.2059C5.43952 13.6201 5.43952 12.6704 4.85373 12.0846L3.43952 13.4988C3.24426 13.3036 3.24426 12.987 3.43952 12.7917L4.85373 14.2059ZM3.65127 15.4084L4.85373 14.2059L3.43952 12.7917L2.23706 13.9942L3.65127 15.4084ZM1.52995 15.4084C2.11574 15.9942 3.06548 15.9942 3.65127 15.4084L2.23706 13.9942C2.43232 13.7989 2.7489 13.7989 2.94416 13.9942L1.52995 15.4084ZM1.52995 13.2871C0.944162 13.8729 0.944162 14.8226 1.52995 15.4084L2.94416 13.9942C3.13942 14.1894 3.13942 14.506 2.94416 14.7013L1.52995 13.2871ZM2.73241 12.0846L1.52995 13.2871L2.94416 14.7013L4.14663 13.4988L2.73241 12.0846ZM4.85373 12.0846C4.26795 11.4988 3.3182 11.4988 2.73241 12.0846L4.14663 13.4988C3.95136 13.6941 3.63478 13.6941 3.43952 13.4988L4.85373 12.0846ZM14.9492 14.2943C15.1444 14.0991 15.461 14.0991 15.6563 14.2943L14.2421 15.7086C14.8279 16.2943 15.7776 16.2943 16.3634 15.7086L14.9492 14.2943ZM14.9492 15.0014C14.7539 14.8062 14.7539 14.4896 14.9492 14.2943L16.3634 15.7086C16.9492 15.1228 16.9492 14.173 16.3634 13.5872L14.9492 15.0014ZM13.7467 13.799L14.9492 15.0014L16.3634 13.5872L15.1609 12.3848L13.7467 13.799ZM14.4538 13.799C14.2586 13.9942 13.942 13.9942 13.7467 13.799L15.1609 12.3848C14.5751 11.799 13.6254 11.799 13.0396 12.3848L14.4538 13.799ZM14.4538 13.0919C14.6491 13.2871 14.6491 13.6037 14.4538 13.799L13.0396 12.3848C12.4538 12.9706 12.4538 13.9203 13.0396 14.5061L14.4538 13.0919ZM15.6563 14.2943L14.4538 13.0919L13.0396 14.5061L14.2421 15.7086L15.6563 14.2943ZM2.73241 5.49068C3.3182 6.07647 4.26795 6.07647 4.85373 5.49068L3.43952 4.07647C3.63478 3.88121 3.95136 3.88121 4.14663 4.07647L2.73241 5.49068ZM1.52995 4.28822L2.73241 5.49068L4.14663 4.07647L2.94416 2.87401L1.52995 4.28822ZM1.52995 2.1669C0.944162 2.75268 0.944161 3.70243 1.52995 4.28822L2.94416 2.87401C3.13942 3.06927 3.13942 3.38585 2.94416 3.58111L1.52995 2.1669ZM3.65127 2.1669C3.06548 1.58111 2.11574 1.58111 1.52995 2.1669L2.94416 3.58111C2.7489 3.77637 2.43232 3.77637 2.23706 3.58111L3.65127 2.1669ZM4.85373 3.36936L3.65127 2.1669L2.23706 3.58111L3.43952 4.78358L4.85373 3.36936ZM4.85373 5.49068C5.43952 4.9049 5.43952 3.95515 4.85373 3.36936L3.43952 4.78358C3.24426 4.58831 3.24426 4.27173 3.43952 4.07647L4.85373 5.49068ZM13.1007 9.00015C13.1007 11.2646 11.2651 13.1002 9.00066 13.1002V15.1002C12.3696 15.1002 15.1007 12.3691 15.1007 9.00015H13.1007ZM9.00066 4.90006C11.2651 4.90006 13.1007 6.73573 13.1007 9.00015H15.1007C15.1007 5.63116 12.3696 2.90006 9.00066 2.90006V4.90006ZM4.90057 9.00015C4.90057 6.73573 6.73624 4.90006 9.00066 4.90006V2.90006C5.63167 2.90006 2.90057 5.63116 2.90057 9.00015H4.90057ZM9.00066 13.1002C6.73624 13.1002 4.90057 11.2646 4.90057 9.00015H2.90057C2.90057 12.3691 5.63167 15.1002 9.00066 15.1002V13.1002Z" fill="#2A2B31" mask="url(#path-1-inside-1_125_122)"/>
</svg>